<svg width="32" height="32" viewBox="0 0 32 32" fill="none" xmlns="http://www.w3.org/2000/svg">
<path d="M16 2.5C13.33 2.5 10.7199 3.29176 8.49981 4.77516C6.27974 6.25856 4.54942 8.36697 3.52763 10.8338C2.50585 13.3006 2.2385 16.015 2.7594 18.6337C3.28031 21.2525 4.56606 23.6579 6.45406 25.5459C8.34207 27.434 10.7475 28.7197 13.3663 29.2406C15.985 29.7615 18.6994 29.4942 21.1662 28.4724C23.633 27.4506 25.7414 25.7203 27.2248 23.5002C28.7082 21.2801 29.5 18.67 29.5 16C29.496 12.4208 28.0724 8.98932 25.5416 6.45844C23.0107 3.92756 19.5792 2.50397 16 2.5ZM16 26.5C13.9233 26.5 11.8932 25.8842 10.1665 24.7304C8.4398 23.5767 7.09399 21.9368 6.29927 20.0182C5.50455 18.0996 5.29662 15.9884 5.70176 13.9516C6.10691 11.9148 7.10693 10.0438 8.57538 8.57538C10.0438 7.10693 11.9148 6.1069 13.9516 5.70175C15.9884 5.29661 18.0996 5.50454 20.0182 6.29926C21.9368 7.09399 23.5767 8.4398 24.7304 10.1665C25.8842 11.8932 26.5 13.9233 26.5 16C26.497 18.7839 25.3898 21.4528 23.4213 23.4213C21.4529 25.3898 18.7839 26.497 16 26.5ZM14.5 16.5V10C14.5 9.60218 14.658 9.22064 14.9393 8.93934C15.2206 8.65804 15.6022 8.5 16 8.5C16.3978 8.5 16.7794 8.65804 17.0607 8.93934C17.342 9.22064 17.5 9.60218 17.5 10V16.5C17.5 16.8978 17.342 17.2794 17.0607 17.5607C16.7794 17.842 16.3978 18 16 18C15.6022 18 15.2206 17.842 14.9393 17.5607C14.658 17.2794 14.5 16.8978 14.5 16.5ZM18 21.5C18 21.8956 17.8827 22.2822 17.6629 22.6111C17.4432 22.94 17.1308 23.1964 16.7654 23.3478C16.3999 23.4991 15.9978 23.5387 15.6098 23.4616C15.2219 23.3844 14.8655 23.1939 14.5858 22.9142C14.3061 22.6345 14.1156 22.2781 14.0384 21.8902C13.9613 21.5022 14.0009 21.1001 14.1522 20.7346C14.3036 20.3692 14.56 20.0568 14.8889 19.8371C15.2178 19.6173 15.6044 19.5 16 19.5C16.5304 19.5 17.0391 19.7107 17.4142 20.0858C17.7893 20.4609 18 20.9696 18 21.5Z" fill="#e1e1e6"/>
</svg>
