<svg width="24" height="24" viewBox="0 0 24 24" fill="none" xmlns="http://www.w3.org/2000/svg">
<path fill-rule="evenodd" clip-rule="evenodd" d="M2.44714 4.7432C2.72703 4.43786 3.20146 4.41724 3.5068 4.69713L12 12.4826L20.4932 4.69713C20.7985 4.41724 21.273 4.43786 21.5529 4.7432C21.8328 5.04854 21.8121 5.52297 21.5068 5.80286L12.5068 14.0529C12.2201 14.3157 11.78 14.3157 11.4932 14.0529L2.49321 5.80286C2.18787 5.52297 2.16724 5.04854 2.44714 4.7432Z" fill="#7C7C8A"/>
<path fill-rule="evenodd" clip-rule="evenodd" d="M2.25 5.25C2.25 4.83578 2.58579 4.5 3 4.5H21C21.4142 4.5 21.75 4.83578 21.75 5.25V18C21.75 18.3978 21.592 18.7794 21.3107 19.0607C21.0294 19.342 20.6478 19.5 20.25 19.5H3.75C3.35218 19.5 2.97065 19.342 2.68934 19.0607C2.40804 18.7794 2.25 18.3978 2.25 18V5.25ZM3.75 6V18H20.25V6H3.75Z" fill="#7C7C8A"/>
<path fill-rule="evenodd" clip-rule="evenodd" d="M10.9121 11.4931C11.1921 11.7983 11.1716 12.2728 10.8663 12.5527L3.7413 19.0871C3.43603 19.3671 2.9616 19.3466 2.68163 19.0413C2.40167 18.736 2.42218 18.2616 2.72745 17.9816L9.85245 11.4473C10.1577 11.1673 10.6322 11.1878 10.9121 11.4931Z" fill="#7C7C8A"/>
<path fill-rule="evenodd" clip-rule="evenodd" d="M13.0879 11.4931C13.3679 11.1878 13.8423 11.1673 14.1476 11.4473L21.2726 17.9816C21.5778 18.2616 21.5983 18.736 21.3184 19.0413C21.0384 19.3466 20.564 19.3671 20.2587 19.0871L13.1337 12.5527C12.8284 12.2728 12.8079 11.7983 13.0879 11.4931Z" fill="#7C7C8A"/>
</svg>
