<svg width="24" height="24" viewBox="0 0 24 24" fill="none" xmlns="http://www.w3.org/2000/svg">
<path fill-rule="evenodd" clip-rule="evenodd" d="M5.68934 2.68934C5.97064 2.40804 6.35217 2.25 6.75 2.25H17.25C17.6478 2.25 18.0294 2.40804 18.3107 2.68934C18.592 2.97065 18.75 3.35218 18.75 3.75V7.09212C18.7486 7.3233 18.6941 7.55106 18.5907 7.75783C18.4873 7.96461 18.3378 8.14487 18.1537 8.28471L12.4525 12.5981C12.1858 12.7999 11.8176 12.8007 11.55 12.6L5.8463 8.32223C5.66221 8.18238 5.51272 8.00211 5.40933 7.79533C5.30595 7.58856 5.25144 7.3608 5.25001 7.12962L5.24998 7.125L5.25 3.75C5.25 3.35217 5.40803 2.97064 5.68934 2.68934ZM17.25 3.75H6.75V7.12084L6.75097 7.12451L6.75332 7.12749L11.998 11.061L17.2463 7.09029L17.249 7.08701L17.25 7.08334V3.75Z" fill="#FBA94C"/>
<path fill-rule="evenodd" clip-rule="evenodd" d="M11.55 11.4C11.8176 11.1993 12.1858 11.2001 12.4525 11.4019L18.1537 15.7153C18.3378 15.8551 18.4873 16.0354 18.5907 16.2422C18.6941 16.4489 18.7486 16.6767 18.75 16.9079L18.75 16.9125L18.75 20.25C18.75 20.6478 18.592 21.0294 18.3107 21.3107C18.0294 21.592 17.6478 21.75 17.25 21.75H6.75C6.35218 21.75 5.97064 21.592 5.68934 21.3107C5.40803 21.0294 5.25 20.6478 5.25 20.25V16.8704C5.25142 16.6392 5.30595 16.4114 5.40933 16.2047C5.51272 15.9979 5.66222 15.8176 5.84631 15.6778L5.84999 15.675L11.55 11.4ZM6.75 16.8792L6.75097 16.8755L6.75332 16.8725L11.998 12.939L17.2463 16.9097L17.249 16.913L17.2495 16.9142L17.25 16.9167V20.25H6.75V16.8792Z" fill="#FBA94C"/>
</svg>
