<svg width="20" height="20" viewBox="0 0 20 20" fill="none" xmlns="http://www.w3.org/2000/svg">
<path fill-rule="evenodd" clip-rule="evenodd" d="M2.5 6.875C2.33424 6.875 2.17527 6.94085 2.05806 7.05806C1.94085 7.17527 1.875 7.33424 1.875 7.5V13.125C1.875 13.2908 1.94085 13.4497 2.05806 13.5669C2.17527 13.6842 2.33424 13.75 2.5 13.75H8.75C9.09518 13.75 9.375 14.0298 9.375 14.375C9.375 14.7202 9.09518 15 8.75 15H2.5C2.00272 15 1.52581 14.8025 1.17417 14.4508C0.822544 14.0992 0.625 13.6223 0.625 13.125V7.5C0.625 7.00272 0.822544 6.52581 1.17417 6.17418C1.52581 5.82254 2.00272 5.625 2.5 5.625H8.75C9.09518 5.625 9.375 5.90482 9.375 6.25C9.375 6.59518 9.09518 6.875 8.75 6.875H2.5Z" fill="#996DFF"/>
<path fill-rule="evenodd" clip-rule="evenodd" d="M4.375 16.875C4.375 16.5298 4.65482 16.25 5 16.25H8.75C9.09518 16.25 9.375 16.5298 9.375 16.875C9.375 17.2202 9.09518 17.5 8.75 17.5H5C4.65482 17.5 4.375 17.2202 4.375 16.875Z" fill="#996DFF"/>
<path fill-rule="evenodd" clip-rule="evenodd" d="M13.125 5.625C13.125 5.27982 13.4048 5 13.75 5H16.25C16.5952 5 16.875 5.27982 16.875 5.625C16.875 5.97018 16.5952 6.25 16.25 6.25H13.75C13.4048 6.25 13.125 5.97018 13.125 5.625Z" fill="#996DFF"/>
<path fill-rule="evenodd" clip-rule="evenodd" d="M13.125 8.125C13.125 7.77982 13.4048 7.5 13.75 7.5H16.25C16.5952 7.5 16.875 7.77982 16.875 8.125C16.875 8.47018 16.5952 8.75 16.25 8.75H13.75C13.4048 8.75 13.125 8.47018 13.125 8.125Z" fill="#996DFF"/>
<path fill-rule="evenodd" clip-rule="evenodd" d="M10.625 3.75C10.625 3.05964 11.1846 2.5 11.875 2.5H18.125C18.8154 2.5 19.375 3.05964 19.375 3.75V16.25C19.375 16.9404 18.8154 17.5 18.125 17.5H11.875C11.1846 17.5 10.625 16.9404 10.625 16.25V3.75ZM18.125 3.75H11.875V16.25H18.125V3.75Z" fill="#996DFF"/>
<path fill-rule="evenodd" clip-rule="evenodd" d="M6.875 13.75C7.22018 13.75 7.5 14.0298 7.5 14.375V16.875C7.5 17.2202 7.22018 17.5 6.875 17.5C6.52982 17.5 6.25 17.2202 6.25 16.875V14.375C6.25 14.0298 6.52982 13.75 6.875 13.75Z" fill="#996DFF"/>
<path d="M15 15C15.5178 15 15.9375 14.5803 15.9375 14.0625C15.9375 13.5447 15.5178 13.125 15 13.125C14.4822 13.125 14.0625 13.5447 14.0625 14.0625C14.0625 14.5803 14.4822 15 15 15Z" fill="#996DFF"/>
</svg>
