<svg width="20" height="20" viewBox="0 0 20 20" fill="none" xmlns="http://www.w3.org/2000/svg">
<path fill-rule="evenodd" clip-rule="evenodd" d="M8.42277 3.68894C8.19417 3.88686 7.92034 4.09527 7.60721 4.22551C7.29173 4.35673 6.95095 4.40142 6.65098 4.42114C6.45457 4.43405 6.23542 4.43754 6.03568 4.44073C5.9409 4.44224 5.85049 4.44369 5.76895 4.44603C5.16816 4.46331 4.86233 4.53718 4.69975 4.69975C4.53809 4.86142 4.4672 5.15813 4.45194 5.75522C4.44999 5.8317 4.44883 5.91558 4.4476 6.00353C4.44477 6.20756 4.44163 6.43344 4.42764 6.63921C4.40694 6.94355 4.35966 7.28689 4.22492 7.60862C4.09159 7.927 3.88308 8.20343 3.68294 8.43527C3.5464 8.59344 3.38889 8.75785 3.24596 8.90705C3.18513 8.97055 3.12694 9.03129 3.07412 9.08762C2.88103 9.29358 2.73182 9.46846 2.6303 9.63315C2.53131 9.79373 2.5 9.90941 2.5 10C2.5 10.0897 2.53165 10.2073 2.6328 10.3717C2.73596 10.5394 2.8872 10.7176 3.0809 10.9251C3.13627 10.9844 3.19769 11.0487 3.26186 11.1159C3.40266 11.2632 3.55668 11.4245 3.68894 11.5772C3.88686 11.8058 4.09527 12.0797 4.22551 12.3928C4.35673 12.7083 4.40142 13.049 4.42114 13.349C4.43405 13.5454 4.43754 13.7646 4.44073 13.9643C4.44224 14.0591 4.44369 14.1495 4.44603 14.2311C4.46331 14.8318 4.53718 15.1377 4.69975 15.3002C4.86142 15.4619 5.15813 15.5328 5.75522 15.5481C5.8317 15.55 5.9156 15.5512 6.00356 15.5524C6.20758 15.5552 6.43344 15.5584 6.63921 15.5724C6.94355 15.5931 7.28689 15.6403 7.60862 15.7751C7.927 15.9084 8.20343 16.1169 8.43527 16.3171C8.59343 16.4536 8.75784 16.6111 8.90704 16.754C8.97054 16.8149 9.03128 16.8731 9.08762 16.9259C9.29358 17.119 9.46846 17.2682 9.63315 17.3697C9.79373 17.4687 9.90941 17.5 10 17.5C10.0897 17.5 10.2073 17.4684 10.3717 17.3672C10.5394 17.264 10.7176 17.1128 10.9251 16.9191C10.9844 16.8637 11.0487 16.8023 11.1159 16.7381C11.2632 16.5973 11.4245 16.4433 11.5772 16.3111C11.8058 16.1131 12.0797 15.9047 12.3928 15.7745C12.7083 15.6433 13.049 15.5986 13.349 15.5789C13.5454 15.566 13.7646 15.5625 13.9643 15.5593C14.0591 15.5578 14.1495 15.5563 14.2311 15.554C14.8318 15.5367 15.1377 15.4628 15.3002 15.3002C15.4619 15.1386 15.5328 14.8419 15.5481 14.2448C15.55 14.1683 15.5512 14.0844 15.5524 13.9964C15.5552 13.7924 15.5584 13.5666 15.5724 13.3608C15.5931 13.0564 15.6403 12.7131 15.7751 12.3914C15.9084 12.073 16.1169 11.7966 16.3171 11.5647C16.4536 11.4066 16.6111 11.2422 16.754 11.093C16.8149 11.0295 16.8731 10.9687 16.9259 10.9124C17.119 10.7064 17.2682 10.5315 17.3697 10.3669C17.4687 10.2063 17.5 10.0906 17.5 10C17.5 9.91025 17.4684 9.79269 17.3672 9.62826C17.264 9.46057 17.1128 9.28242 16.9191 9.07492C16.8637 9.01561 16.8023 8.95131 16.7381 8.88414C16.5973 8.73675 16.4433 8.57553 16.3111 8.42277C16.1131 8.19417 15.9047 7.92034 15.7745 7.60721C15.6433 7.29173 15.5986 6.95095 15.5789 6.65098C15.566 6.45458 15.5625 6.23544 15.5593 6.0357C15.5578 5.94091 15.5563 5.85049 15.554 5.76895C15.5367 5.16816 15.4628 4.86233 15.3002 4.69975C15.1386 4.53809 14.8419 4.4672 14.2448 4.45194C14.1683 4.44999 14.0844 4.44883 13.9965 4.4476C13.7924 4.44477 13.5666 4.44163 13.3608 4.42764C13.0564 4.40694 12.7131 4.35966 12.3914 4.22492C12.073 4.09159 11.7966 3.88308 11.5647 3.68294C11.4066 3.5464 11.2422 3.38889 11.0929 3.24596C11.0295 3.18513 10.9687 3.12694 10.9124 3.07412C10.7064 2.88103 10.5315 2.73182 10.3669 2.6303C10.2063 2.53131 10.0906 2.5 10 2.5C9.91025 2.5 9.79269 2.53165 9.62826 2.6328C9.46057 2.73596 9.28242 2.8872 9.07492 3.0809C9.01561 3.13627 8.95131 3.19769 8.88414 3.26186C8.73675 3.40266 8.57553 3.55668 8.42277 3.68894ZM8.9733 1.56813C9.25614 1.39413 9.60146 1.25 10 1.25C10.3977 1.25 10.741 1.39252 11.0228 1.56623C11.3005 1.73741 11.5514 1.95979 11.7673 2.1622C11.8459 2.23589 11.9184 2.30544 11.9878 2.37193C12.1241 2.50267 12.2481 2.62155 12.3816 2.73674C12.5765 2.90501 12.7356 3.01388 12.8742 3.07195C13.0095 3.12862 13.1936 3.16337 13.4456 3.18052C13.6177 3.19222 13.7846 3.19445 13.9694 3.19692C14.0659 3.1982 14.1672 3.19955 14.2767 3.20235C14.8261 3.21639 15.627 3.25878 16.1841 3.81587C16.7403 4.37204 16.7875 5.1795 16.8035 5.73301C16.8069 5.85129 16.8085 5.9595 16.81 6.06208C16.8127 6.24031 16.8152 6.40153 16.8262 6.569C16.8428 6.82249 16.8763 7.00124 16.9286 7.12717C16.982 7.25544 17.0871 7.40935 17.2561 7.60458C17.3689 7.73492 17.4849 7.85613 17.6124 7.98947C17.682 8.0622 17.755 8.13855 17.8329 8.22195C18.0366 8.44023 18.2599 8.69373 18.4319 8.9733C18.6059 9.25614 18.75 9.60146 18.75 10C18.75 10.3977 18.6075 10.741 18.4338 11.0228C18.2626 11.3005 18.0402 11.5514 17.8378 11.7673C17.7641 11.8459 17.6946 11.9184 17.6281 11.9878C17.4973 12.1241 17.3784 12.2481 17.2633 12.3816C17.095 12.5765 16.9861 12.7356 16.928 12.8742C16.8714 13.0095 16.8366 13.1936 16.8195 13.4456C16.8078 13.6177 16.8056 13.7846 16.8031 13.9694C16.8018 14.0659 16.8004 14.1672 16.7976 14.2767C16.7836 14.8261 16.7412 15.627 16.1841 16.1841C15.628 16.7403 14.8205 16.7875 14.267 16.8035C14.1487 16.8069 14.0405 16.8085 13.9379 16.81C13.7597 16.8127 13.5985 16.8152 13.431 16.8262C13.1775 16.8428 12.9988 16.8763 12.8728 16.9286C12.7446 16.982 12.5907 17.0871 12.3954 17.2561C12.2651 17.3689 12.1439 17.4849 12.0105 17.6124C11.9378 17.682 11.8615 17.755 11.778 17.8329C11.5598 18.0366 11.3063 18.2599 11.0267 18.4319C10.7439 18.6059 10.3985 18.75 10 18.75C9.60231 18.75 9.259 18.6075 8.97721 18.4338C8.69951 18.2626 8.4486 18.0402 8.23269 17.8378C8.15409 17.7641 8.08156 17.6946 8.01222 17.6281C7.87586 17.4973 7.75187 17.3784 7.61844 17.2633C7.42353 17.095 7.26441 16.9861 7.12575 16.928C6.99045 16.8714 6.80645 16.8366 6.55439 16.8195C6.38229 16.8078 6.21541 16.8056 6.03059 16.8031C5.93414 16.8018 5.8328 16.8004 5.72329 16.7976C5.1739 16.7836 4.37296 16.7412 3.81587 16.1841C3.2597 15.628 3.21247 14.8205 3.19655 14.267C3.19315 14.1487 3.19151 14.0405 3.18996 13.9379C3.18727 13.7597 3.18484 13.5985 3.17383 13.431C3.15717 13.1775 3.12374 12.9988 3.07136 12.8728C3.01801 12.7446 2.91294 12.5907 2.74392 12.3954C2.63107 12.2651 2.51514 12.1439 2.3876 12.0105C2.31803 11.9378 2.24501 11.8615 2.16715 11.778C1.96339 11.5598 1.74012 11.3063 1.56813 11.0267C1.39413 10.7439 1.25 10.3985 1.25 10C1.25 9.60231 1.39252 9.259 1.56623 8.97721C1.73741 8.69951 1.95979 8.4486 2.1622 8.23269C2.23589 8.15409 2.30544 8.08155 2.37193 8.01222C2.50267 7.87586 2.62155 7.75187 2.73674 7.61844C2.90501 7.42353 3.01388 7.26441 3.07195 7.12575C3.12862 6.99045 3.16337 6.80645 3.18052 6.55439C3.19222 6.38229 3.19445 6.2154 3.19692 6.03059C3.1982 5.93414 3.19955 5.8328 3.20235 5.72329C3.21639 5.1739 3.25878 4.37296 3.81587 3.81587C4.37204 3.2597 5.1795 3.21247 5.73301 3.19655C5.85129 3.19315 5.9595 3.19151 6.06208 3.18996C6.2403 3.18727 6.40153 3.18484 6.569 3.17383C6.82249 3.15717 7.00124 3.12374 7.12717 3.07136C7.25544 3.01801 7.40935 2.91294 7.60458 2.74392C7.73492 2.63107 7.85613 2.51514 7.98947 2.3876C8.0622 2.31803 8.13855 2.24501 8.22195 2.16715C8.44023 1.96339 8.69373 1.74012 8.9733 1.56813Z" fill="#996DFF"/>
<path fill-rule="evenodd" clip-rule="evenodd" d="M13.8897 7.69358C14.128 7.94333 14.1187 8.33895 13.8689 8.57722L9.28298 12.9522C9.04135 13.1827 8.66119 13.1826 8.41976 12.9519L6.1307 10.7644C5.88114 10.5259 5.87217 10.1302 6.11065 9.8807C6.34913 9.63115 6.74475 9.62217 6.9943 9.86065L8.85193 11.6359L13.0061 7.67278C13.2558 7.43451 13.6515 7.44383 13.8897 7.69358Z" fill="#996DFF"/>
</svg>
