<svg width="18" height="18" viewBox="0 0 18 18" fill="none" xmlns="http://www.w3.org/2000/svg">
<path fill-rule="evenodd" clip-rule="evenodd" d="M9 2.8125C5.58274 2.8125 2.8125 5.58274 2.8125 9C2.8125 12.4173 5.58274 15.1875 9 15.1875C12.4173 15.1875 15.1875 12.4173 15.1875 9C15.1875 5.58274 12.4173 2.8125 9 2.8125ZM1.6875 9C1.6875 4.96142 4.96142 1.6875 9 1.6875C13.0386 1.6875 16.3125 4.96142 16.3125 9C16.3125 13.0386 13.0386 16.3125 9 16.3125C4.96142 16.3125 1.6875 13.0386 1.6875 9Z" fill="#7C7C8A"/>
<path fill-rule="evenodd" clip-rule="evenodd" d="M8.4375 9C8.4375 8.68934 8.68934 8.4375 9 8.4375H12.9375C13.2482 8.4375 13.5 8.68934 13.5 9C13.5 9.31066 13.2482 9.5625 12.9375 9.5625H9C8.68934 9.5625 8.4375 9.31066 8.4375 9Z" fill="#7C7C8A"/>
<path fill-rule="evenodd" clip-rule="evenodd" d="M8.60225 8.60225C8.82192 8.38258 9.17808 8.38258 9.39775 8.60225L12.1821 11.3866C12.4018 11.6063 12.4018 11.9625 12.1821 12.1821C11.9625 12.4018 11.6063 12.4018 11.3866 12.1821L8.60225 9.39775C8.38258 9.17808 8.38258 8.82192 8.60225 8.60225Z" fill="#7C7C8A"/>
</svg>
