<svg width="20" height="20" viewBox="0 0 20 20" fill="none" xmlns="http://www.w3.org/2000/svg">
<path d="M19.0578 7.23984L4.68281 2.23984C4.54157 2.19074 4.39064 2.17614 4.2426 2.19726C4.09457 2.21838 3.95374 2.2746 3.83186 2.36123C3.70998 2.44786 3.61059 2.56239 3.54199 2.69525C3.47339 2.82812 3.43756 2.97547 3.4375 3.125V16.875C3.4375 17.1236 3.53627 17.3621 3.71209 17.5379C3.8879 17.7137 4.12636 17.8125 4.375 17.8125C4.62364 17.8125 4.8621 17.7137 5.03791 17.5379C5.21373 17.3621 5.3125 17.1236 5.3125 16.875V13.7914L19.0578 9.01015C19.2415 8.94606 19.4007 8.82643 19.5133 8.66783C19.6259 8.50923 19.6864 8.31952 19.6864 8.125C19.6864 7.93047 19.6259 7.74076 19.5133 7.58216C19.4007 7.42356 19.2415 7.30393 19.0578 7.23984ZM5.3125 11.8062V4.44375L15.8961 8.125L5.3125 11.8062Z" fill="#996DFF"/>
</svg>
